<svg width="48" height="48" viewBox="0 0 48 48" fill="none" xmlns="http://www.w3.org/2000/svg">
<path d="M25.4244 24.0229C25.2774 25.3257 23.7226 25.3257 23.5756 24.0229L21.0088 1.28339C20.9321 0.604614 21.3676 6.0356e-07 21.9332 5.43668e-07L27.0668 0C27.6324 -5.98924e-08 28.0679 0.604613 27.9912 1.28339L25.4244 24.0229Z" fill="black"/>
<path d="M20.3417 24.5797C20.5871 25.8676 19.1022 26.3281 18.5758 25.1273L9.38852 4.16863C9.11428 3.54301 9.35115 2.83653 9.89131 2.66902L14.7946 1.14839C15.3347 0.980874 15.9298 1.42935 16.0576 2.10036L20.3417 24.5797Z" fill="black"/>
<path d="M28.5392 24.5797C28.2938 25.8676 29.7787 26.3281 30.3051 25.1273L39.4923 4.16863C39.7666 3.54301 39.5297 2.83653 38.9896 2.66902L34.0863 1.14839C33.5461 0.980874 32.9511 1.42935 32.8232 2.10036L28.5392 24.5797Z" fill="black"/>
<path d="M31.0229 29.5756C32.3257 29.7226 32.3257 31.2774 31.0229 31.4244L8.28339 33.9912C7.60461 34.0679 7 33.6324 7 33.0668L7 27.9332C7 27.3676 7.60461 26.9321 8.28339 27.0088L31.0229 29.5756Z" fill="black"/>
<path d="M31.0229 43.5756C32.3257 43.7226 32.3257 45.2774 31.0229 45.4244L8.28339 47.9912C7.60461 48.0679 7 47.6324 7 47.0668L7 41.9332C7 41.3676 7.60461 40.9321 8.28339 41.0088L31.0229 43.5756Z" fill="black"/>
<path d="M16.9771 38.4244C15.6743 38.2774 15.6743 36.7226 16.9771 36.5756L39.7166 34.0088C40.3954 33.9321 41 34.3676 41 34.9332L41 40.0668C41 40.6324 40.3954 41.0679 39.7166 40.9912L16.9771 38.4244Z" fill="black"/>
<rect x="7" y="29" width="4" height="15" fill="black"/>
<rect x="37" y="38" width="4" height="8" rx="1" fill="black"/>
</svg>
