<svg width="48" height="48" viewBox="0 0 48 48" fill="none" xmlns="http://www.w3.org/2000/svg">
<g clip-path="url(#clip0_664_539)">
<path d="M39.3449 41.3462C39.3449 41.3462 38.814 38.7999 33.2962 38.4897L13.3765 40.5715L-28.8274 38.2644L-25.7643 49.2757C-24.1047 50.0598 1.82415 46.1263 17.4319 47.4324L28.3884 44.3893L39.3449 41.3462Z" fill="#8700A5"/>
<path d="M34.9376 25.1655C34.9376 25.1655 35.1085 27.761 29.8757 29.5386L10.1267 32.8714L-29.915 46.4046L-29.915 34.9753C-28.5262 33.7751 -2.49172 30.6158 12.1951 25.1746L23.5663 25.17L34.9376 25.1655Z" fill="#8700A5"/>
<path d="M14.477 34.7132C14.477 34.7132 15.1246 37.0481 20.5515 36.8495L36.7302 37.6594L57.862 52.4465L57.5657 44.3484C55.899 43.762 37.5042 30.6798 35.818 31.2793L14.477 34.7132Z" fill="#8700A5"/>
<path fill-rule="evenodd" clip-rule="evenodd" d="M24.496 24.1874L16.5 -5.02111L32.0905 -5.02111L24.496 24.1874Z" fill="#8700A5"/>
<path fill-rule="evenodd" clip-rule="evenodd" d="M24.496 24.1874L16.5 -5.02111L32.0905 -5.02111L24.496 24.1874Z" fill="#8700A5"/>
<path fill-rule="evenodd" clip-rule="evenodd" d="M28.0817 24.041L36.5414 -4.78215L52 -4.78215L28.0817 24.041Z" fill="#8700A5"/>
<path fill-rule="evenodd" clip-rule="evenodd" d="M28.0817 24.041L36.5414 -4.78215L52 -4.78215L28.0817 24.041Z" fill="#8700A5"/>
<path fill-rule="evenodd" clip-rule="evenodd" d="M20.4975 24.041L12.0378 -4.78215L-3.42082 -4.78215L20.4975 24.041Z" fill="#8700A5"/>
<path fill-rule="evenodd" clip-rule="evenodd" d="M20.4975 24.041L12.0378 -4.78215L-3.42082 -4.78215L20.4975 24.041Z" fill="#8700A5"/>
</g>
<defs>
<clipPath id="clip0_664_539">
<rect width="48" height="48" fill="white"/>
</clipPath>
</defs>
</svg>
